<svg xmlns="http://www.w3.org/2000/svg" width="114.109" height="126.917" viewBox="0 0 114.109 126.917">
  <g id="Group_4575" data-name="Group 4575" transform="translate(-164 -262.772)">
    <path id="Path_540" data-name="Path 540" d="M518.29,475.62a2.193,2.193,0,0,1,2.471-1.9c3.142,0,6.292-.136,9.423.057,5.272.324,8.916,4.45,8.933,10.007.037,11.822.011,23.645.011,35.468q0,19.966,0,39.932c0,7.065-3.78,10.807-10.894,10.808q-46.135.005-92.271,0c-7.229,0-10.93-3.732-10.931-11.02q-.005-37.08,0-74.16,0-11.079,11.136-11.1c2.15,0,4.305.1,6.447-.033,1.623-.1,2.7.4,3.254,1.941-.429,1.539-1.531,1.971-3.011,1.95-2.8-.04-5.6-.069-8.4.014A5.414,5.414,0,0,0,428.9,483c-.07,1.313.054,2.639-.046,3.948-.1,1.36.5,1.65,1.734,1.632,4.115-.06,8.232.021,12.346-.044,1.522-.024,2.567.407,2.925,1.981-.5,1.539-1.677,1.835-3.131,1.82-4.053-.042-8.107.023-12.161-.036-1.236-.018-1.737.293-1.735,1.644.041,22.252.013,44.5.067,66.757a5.263,5.263,0,0,0,5.308,5.443c3.542.14,7.1-.036,10.646-.075,6.525.056,13.05.153,19.575.159q31.995.03,63.989,0c4.742,0,6.873-2,6.878-6.46q.03-32.737.035-65.474c0-1.414-.21-2.06-1.859-2.011-4.46.134-8.926.071-13.39.086a3.435,3.435,0,0,1-1.742-1.776c.364-1.54,1.342-2.079,2.9-2.039,3.052.081,6.108.023,9.163.023,5.094,0,5.094,0,4.914-5.1-.134-3.781-2.26-5.876-6.116-5.942-2.641-.046-5.286-.076-7.925.014C519.747,477.6,518.707,477.159,518.29,475.62Z" transform="translate(-261.028 -180.302)" fill="#fff"/>
    <path id="Path_541" data-name="Path 541" d="M473.863,444.622c.038-6.025.153-12.052.073-18.075a3.4,3.4,0,0,1,2.657-3.783c9.38-3.345,18.717-6.811,28.047-10.291a5.394,5.394,0,0,1,4.035-.01c9.331,3.479,18.668,6.943,28.046,10.293a3.414,3.414,0,0,1,2.655,3.79c-.078,6.024.035,12.05.074,18.075q0,7.451-.008,14.9a80.837,80.837,0,0,1-.789,8.117c-2.575,13.132-9.994,22.558-22.094,28.273-3.2,1.509-6.228,4.154-9.624,4.233-3.506.082-6.584-2.715-9.883-4.18a38.5,38.5,0,0,1-14.445-10.98c-6.042-7.419-8.579-16.031-8.736-25.464Q473.867,452.074,473.863,444.622Zm39.255,48.667a34.4,34.4,0,0,0,22.369-32.03c.078-10.984,0-21.969.039-32.953,0-1.251-.115-2.057-1.565-2.57-8.693-3.08-17.34-6.287-25.993-9.478a2.838,2.838,0,0,0-2.134-.2q-10.271,3.871-20.556,7.7c-1.944.667-3.86,1.432-5.839,1.966-1.419.383-1.678,1.165-1.672,2.5.053,10.992-.15,21.988.08,32.976.288,13.738,6.8,23.847,18.8,30.418,2.816,1.542,5.792,2.793,8.681,4.206a2.432,2.432,0,0,0,2.546.187C509.582,495.037,511.365,494.19,513.118,493.289Z" transform="translate(-285.606 -149.305)" fill="#fff"/>
    <path id="Path_548" data-name="Path 548" d="M457.664,624.086a5.507,5.507,0,0,1-3.265-5.819,40.714,40.714,0,0,0,0-4.459,5.26,5.26,0,0,1,3.242-5.574c1.235-.058,2.471-.167,3.707-.167q35.71-.015,71.421-.006c5.552,0,6.8,1.272,6.8,6.9,0,1.074,0,2.149,0,3.224-.013,4.391-1.6,6.017-5.932,6.02q-15.871.012-31.743,0c-6.944,0-13.888-.023-20.831.017-1.543.009-2.817-.191-3.179-1.977.448-1.971,1.986-1.894,3.511-1.893q24.414.009,48.826,0c5.587,0,5.5,0,5.6-5.617.042-2.222-.529-2.955-2.9-2.945-22.884.1-45.77.057-68.654.057-6.26,0-6.191,0-6.145,6.313.013,1.807.681,2.26,2.333,2.219,3.468-.085,6.94.019,10.409-.046a2.826,2.826,0,0,1,3.1,1.889,2.572,2.572,0,0,1-2.707,2.005C466.732,624.123,462.2,624.127,457.664,624.086Z" transform="translate(-275.801 -247.94)" fill="#fff"/>
    <path id="Path_549" data-name="Path 549" d="M477.763,626.016a2.826,2.826,0,0,0-3.1-1.889c-3.469.066-6.941-.039-10.409.046-1.652.041-2.32-.412-2.333-2.219-.046-6.313-.115-6.313,6.145-6.313,22.885,0,45.769.038,68.654-.057,2.369-.01,2.94.723,2.9,2.945-.107,5.616-.016,5.617-5.6,5.617q-24.413,0-48.826,0c-1.525,0-3.062-.077-3.511,1.894Z" transform="translate(-279.593 -251.728)" fill="#01288f"/>
    <path id="Path_550" data-name="Path 550" d="M454.655,589.506c-1.393-.048-2.788-.066-4.179-.155-1.231-.079-2.082-.732-2-2.017a1.824,1.824,0,0,1,2.01-1.748q2.094-.049,4.187-.1l16.864.083c.579,0,1.158.007,1.737,0,1.315-.017,2.353.4,2.354,1.9,0,1.518-1.1,1.9-2.375,1.9-5.127.011-10.255,0-15.382.012C456.8,589.389,455.725,589.464,454.655,589.506Z" transform="translate(-272.825 -236.582)" fill="#fff"/>
    <path id="Path_551" data-name="Path 551" d="M590.859,585.65c3.554,0,7.108.014,10.661-.008,1.343-.008,2.646.173,2.71,1.806.072,1.837-1.352,2.005-2.764,2.005q-10.786,0-21.571,0c-1.411,0-2.875-.161-2.844-1.944.03-1.763,1.48-1.884,2.9-1.874C583.586,585.668,587.223,585.649,590.859,585.65Z" transform="translate(-337.539 -236.657)" fill="#fff"/>
    <path id="Path_552" data-name="Path 552" d="M476.663,563.049a2.5,2.5,0,0,1,1.612,1.794c-.848,1.915-5.676,2.9-7.162,1.458a1.8,1.8,0,0,1-.482-1.81,1.618,1.618,0,0,1,1.581-1.331C473.693,563.07,475.179,563.08,476.663,563.049Z" transform="translate(-283.948 -225.287)" fill="#fff"/>
    <path id="Path_553" data-name="Path 553" d="M593.98,564.9c.4-.626.672-1.359,1.436-1.672,1.551,0,3.1-.049,4.653.005a1.76,1.76,0,0,1,1.718,1.488,1.683,1.683,0,0,1-.679,1.726C599.494,567.806,594.881,566.8,593.98,564.9Z" transform="translate(-346.06 -225.367)" fill="#fff"/>
    <path id="Path_554" data-name="Path 554" d="M621.457,566.844c-1.03-.049-2.239.284-2.843-.895-.711-1.385-.235-2.434,1.287-2.752a12.634,12.634,0,0,1,2.926-.092c1.173.036,2.159.486,2.155,1.822,0,1.438-.977,1.94-2.3,1.916C622.274,566.836,621.866,566.842,621.457,566.844Z" transform="translate(-358.295 -225.296)" fill="#fff"/>
    <path id="Path_555" data-name="Path 555" d="M621.7,540.612a11.326,11.326,0,0,1,1.734.016,1.658,1.658,0,0,1,1.6,1.859c-.3,2.357-2.223,1.712-3.694,1.8-1.373.079-2.894.039-2.943-1.793-.049-1.81,1.375-1.99,2.807-1.911.165.009.331,0,.5,0Z" transform="translate(-358.345 -213.971)" fill="#fff"/>
    <path id="Path_556" data-name="Path 556" d="M454.666,566.343c-1.472.819-3.066.461-4.606.41a1.811,1.811,0,0,1-.107-3.578,9.73,9.73,0,0,1,4.65.271A2.324,2.324,0,0,1,454.666,566.343Z" transform="translate(-272.827 -225.274)" fill="#fff"/>
    <path id="Path_557" data-name="Path 557" d="M454.612,543.926a11.469,11.469,0,0,1-4.158.306,1.73,1.73,0,0,1-1.945-1.778,1.683,1.683,0,0,1,1.84-1.864c1.455.026,2.966-.369,4.343.448A2.314,2.314,0,0,1,454.612,543.926Z" transform="translate(-272.846 -213.948)" fill="#fff"/>
    <path id="Path_558" data-name="Path 558" d="M517.085,499.276c-1.991,1.112-3.791.757-5.769-.31-3.48-1.876-7.219-3.282-10.338-5.8a30.616,30.616,0,0,1-11.889-24.549c-.1-8.928.107-17.862-.091-26.788-.072-3.236.381-5.659,3.962-6.405q9.636-3.471,19.267-6.953a5.057,5.057,0,0,1,3.8-.124c7,2.661,14.04,5.224,21.085,7.77,1.347.486,2.407,1.043,2.38,2.7-.179,11.223.659,22.48-.381,33.663-1,10.8-6.887,18.661-16.346,23.865C520.9,497.367,518.979,498.3,517.085,499.276Zm-24.2-43.1c0,4.3-.1,8.6.019,12.89.284,10.639,5.156,18.595,14.432,23.742,7.094,3.937,7.186,3.915,14.281-.133,8.509-4.854,13.474-12.24,13.907-22.02.435-9.814.1-19.662.154-29.495a1.9,1.9,0,0,0-1.467-2.146c-6.217-2.2-12.406-4.471-18.585-6.771a3.407,3.407,0,0,0-2.6-.036q-9.265,3.461-18.582,6.779a2.043,2.043,0,0,0-1.6,2.316C492.924,446.256,492.88,451.215,492.887,456.173Z" transform="translate(-293.22 -157.334)" fill="#fff"/>
    <path id="Union_1" data-name="Union 1" d="M14.488,60.841C5.212,55.694.34,47.738.057,37.1-.058,32.805.038,28.506.034,24.208c0-4.957.04-9.916-.032-14.873A2.044,2.044,0,0,1,1.6,7.019Q10.919,3.717,20.179.24a3.412,3.412,0,0,1,2.6.036c6.179,2.3,12.369,4.575,18.586,6.772a1.9,1.9,0,0,1,1.467,2.146c-.049,9.833.281,19.681-.154,29.495-.434,9.78-5.4,17.166-13.908,22.02-3.581,2.043-5.379,3.06-7.193,3.06C19.8,63.769,18,62.79,14.488,60.841Zm-2.9-30.649c-.932,1.156-1.812,2.356-2.7,3.548-1.41,1.891-1.065,3.524.763,4.914,1.774,1.35,3.518,2.744,5.344,4.02A5.466,5.466,0,0,0,22.9,41.553c1.62-1.981,3.1-4.075,4.706-6.067a2.482,2.482,0,0,0,.249-3.357,2.309,2.309,0,0,0-3.173.95C23.27,35,21.765,36.86,20.35,38.782c-1.108,1.5-2.274,1.722-3.72.453-.8-.7-1.806-1.2-2.529-1.963-.626-.666-2.559-.734-1.325-2.478.857-1.212,1.461-2.151,3.2-.858,1.532,1.142,3.121.379,4.268-1.123,2.549-3.336,5.052-6.71,7.708-9.96.8-.985,1.084-3.411,3.521-1.5,2.349,1.846.025,2.589-.6,3.587-.868,1.375-1.909,2.556-.492,4.133,1.546.475,2.426-.379,3.31-1.5,4.439-5.611,4.407-5.983-1.317-10.175-2.436-1.785-3.743-1.628-5.633.793q-4.113,5.272-8.143,10.61c-.762,1.012-1.273,1.752-2.669.636a2.872,2.872,0,0,0-1.8-.7A3.358,3.358,0,0,0,11.587,30.192Z" transform="translate(199.63 274.63)" fill="#38cc00" stroke="rgba(0,0,0,0)" stroke-miterlimit="10" stroke-width="1"/>
    <path id="Path_560" data-name="Path 560" d="M532.737,484.5a2.482,2.482,0,0,1-.249,3.357c-1.606,1.992-3.087,4.086-4.706,6.066a5.466,5.466,0,0,1-7.906,1.122c-1.826-1.276-3.57-2.67-5.344-4.02-1.828-1.39-2.174-3.023-.763-4.914.889-1.192,1.768-2.391,2.7-3.547,1.212-1.505,2.8-1.971,4.336-.749,1.4,1.116,1.907.376,2.669-.637q4.021-5.343,8.143-10.61c1.89-2.421,3.2-2.578,5.633-.793,5.724,4.193,5.755,4.565,1.317,10.176-.885,1.118-1.764,1.972-3.31,1.5-1.417-1.578-.377-2.759.492-4.134.629-1,2.953-1.74.6-3.586-2.437-1.915-2.717.511-3.521,1.5-2.656,3.25-5.159,6.624-7.707,9.96-1.147,1.5-2.736,2.265-4.268,1.124-1.737-1.294-2.341-.355-3.2.858-1.233,1.744.7,1.812,1.325,2.478.723.767,1.729,1.259,2.53,1.963,1.445,1.269,2.611,1.051,3.719-.453,1.416-1.921,2.92-3.778,4.331-5.7A2.31,2.31,0,0,1,532.737,484.5Z" transform="translate(-305.253 -177.737)" fill="#01288f"/>
  </g>
</svg>
